HIERARCHY
ROOT reference
{
  OFFSET 0 0 0
  CHANNELS 6 Xposition Yposition Zposition Zrotation Xrotation Yrotation
  JOINT Hips
  {
    OFFSET 44.6805 85.9651 -20.1189
    CHANNELS 3 Zrotation Xrotation Yrotation
    JOINT RightUpLeg
    {
      OFFSET -9.20028 -1.61905 0.0313892
      CHANNELS 3 Zrotation Xrotation Yrotation
      JOINT RightLeg
      {
        OFFSET 0.0920446 -41.8676 0.113709
        CHANNELS 3 Zrotation Xrotation Yrotation
        JOINT RightFoot
        {
          OFFSET -0.78009 -42.2818 -0.985537
          CHANNELS 3 Zrotation Xrotation Yrotation
          End Site
          {
            OFFSET 0 -7.69 17.5
          }
        }
      }
    }
    JOINT LeftUpLeg
    {
      OFFSET 9.33559 -1.63058 -0.0435578
      CHANNELS 3 Zrotation Xrotation Yrotation
      JOINT LeftLeg
      {
        OFFSET 0.124601 -41.8685 -0.0153308
        CHANNELS 3 Zrotation Xrotation Yrotation
        JOINT LeftFoot
        {
          OFFSET -0.885525 -42.178 -0.480441
          CHANNELS 3 Zrotation Xrotation Yrotation
          End Site
          {
            OFFSET 0 -7.69 17.5
          }
        }
      }
    }
    JOINT Spine
    {
      OFFSET -0.030151 14.2977 0.0632059
      CHANNELS 3 Zrotation Xrotation Yrotation
      JOINT Spine1
      {
        OFFSET -0.0449239 9.71163 -4.69081e-05
        CHANNELS 3 Zrotation Xrotation Yrotation
        JOINT Spine2
        {
          OFFSET 0.0275009 10.1133 -0.0283136
          CHANNELS 3 Zrotation Xrotation Yrotation
          JOINT Spine3
          {
            OFFSET 0.0288761 9.7229 -0.000806902
            CHANNELS 3 Zrotation Xrotation Yrotation
            JOINT Neck
            {
              OFFSET -0.0518603 10.2949 0.241895
              CHANNELS 3 Zrotation Xrotation Yrotation
              JOINT Head
              {
                OFFSET -0.275401 9.55953 0.0709142
                CHANNELS 3 Zrotation Xrotation Yrotation
                End Site
                {
                  OFFSET 0 15.95 0
                }
              }
            }
            JOINT RightShoulder
            {
              OFFSET -3.17286 6.95881 0.00543218
              CHANNELS 3 Zrotation Xrotation Yrotation
              JOINT RightArm
              {
                OFFSET -12.7612 0.039846 0.0411956
                CHANNELS 3 Zrotation Xrotation Yrotation
                JOINT RightForeArm
                {
                  OFFSET -26.5517 0.0729849 0.08211
                  CHANNELS 3 Zrotation Xrotation Yrotation
                  JOINT RightHand
                  {
                    OFFSET -26.0042 -0.0197864 0.0403594
                    CHANNELS 3 Zrotation Xrotation Yrotation
                    JOINT RightHandThumb1
                    {
                      OFFSET -2.48905 0.190105 3.12053
                      CHANNELS 3 Zrotation Xrotation Yrotation
                      JOINT RightHandThumb2
                      {
                        OFFSET -3.68274 0 0
                        CHANNELS 3 Zrotation Xrotation Yrotation
                        JOINT RightHandThumb3
                        {
                          OFFSET -2.55832 0 0
                          CHANNELS 3 Zrotation Xrotation Yrotation
                          End Site
                          {
                            OFFSET -2.194 0 0
                          }
                        }
                      }
                    }
                    JOINT RightInHandIndex
                    {
                      OFFSET -3.22368 0.508421 1.97842
                      CHANNELS 3 Zrotation Xrotation Yrotation
                      JOINT RightHandIndex1
                      {
                        OFFSET -5.21684 -0.091368 0.999158
                        CHANNELS 3 Zrotation Xrotation Yrotation
                        JOINT RightHandIndex2
                        {
                          OFFSET -3.61937 0 0
                          CHANNELS 3 Zrotation Xrotation Yrotation
                          JOINT RightHandIndex3
                          {
                            OFFSET -2.0521 0 0
                            CHANNELS 3 Zrotation Xrotation Yrotation
                            End Site
                            {
                              OFFSET -1.805 0 0
                            }
                          }
                        }
                      }
                    }
                    JOINT RightInHandMiddle
                    {
                      OFFSET -3.38211 0.517263 0.756737
                      CHANNELS 3 Zrotation Xrotation Yrotation
                      JOINT RightHandMiddle1
                      {
                        OFFSET -5.17411 -0.084 0.313895
                        CHANNELS 3 Zrotation Xrotation Yrotation
                        JOINT RightHandMiddle2
                        {
                          OFFSET -3.94947 0 0
                          CHANNELS 3 Zrotation Xrotation Yrotation
                          JOINT RightHandMiddle3
                          {
                            OFFSET -2.47579 0 0
                            CHANNELS 3 Zrotation Xrotation Yrotation
                            End Site
                            {
                              OFFSET -1.975 0 0
                            }
                          }
                        }
                      }
                    }
                    JOINT RightInHandRing
                    {
                      OFFSET -3.36516 0.537895 -0.128947
                      CHANNELS 3 Zrotation Xrotation Yrotation
                      JOINT RightHandRing1
                      {
                        OFFSET -4.63474 -0.022105 -0.478947
                        CHANNELS 3 Zrotation Xrotation Yrotation
                        JOINT RightHandRing2
                        {
                          OFFSET -3.44238 0 0
                          CHANNELS 3 Zrotation Xrotation Yrotation
                          JOINT RightHandRing3
                          {
                            OFFSET -2.3881 0 0
                            CHANNELS 3 Zrotation Xrotation Yrotation
                            End Site
                            {
                              OFFSET -1.857 0 0
                            }
                          }
                        }
                      }
                    }
                    JOINT RightInHandPinky
                    {
                      OFFSET -3.16105 0.469368 -1.20179
                      CHANNELS 3 Zrotation Xrotation Yrotation
                      JOINT RightHandPinky1
                      {
                        OFFSET -4.14105 -0.022105 -1.09053
                        CHANNELS 3 Zrotation Xrotation Yrotation
                        JOINT RightHandPinky2
                        {
                          OFFSET -2.75653 0 0
                          CHANNELS 3 Zrotation Xrotation Yrotation
                          JOINT RightHandPinky3
                          {
                            OFFSET -1.74189 0 0
                            CHANNELS 3 Zrotation Xrotation Yrotation
                            End Site
                            {
                              OFFSET -1.645 0 0
                            }
                          }
                        }
                      }
                    }
                  }
                }
              }
            }
            JOINT LeftShoulder
            {
              OFFSET 3.22572 6.89245 -0.0537601
              CHANNELS 3 Zrotation Xrotation Yrotation
              JOINT LeftArm
              {
                OFFSET 12.8183 -0.0506887 -0.111983
                CHANNELS 3 Zrotation Xrotation Yrotation
                JOINT LeftForeArm
                {
                  OFFSET 26.4786 -0.0502099 0.0159937
                  CHANNELS 3 Zrotation Xrotation Yrotation
                  JOINT LeftHand
                  {
                    OFFSET 25.8931 -0.161185 0.0946899
                    CHANNELS 3 Zrotation Xrotation Yrotation
                    JOINT LeftHandThumb1
                    {
                      OFFSET 2.48905 0.190105 3.12053
                      CHANNELS 3 Zrotation Xrotation Yrotation
                      JOINT LeftHandThumb2
                      {
                        OFFSET 3.68274 0 0
                        CHANNELS 3 Zrotation Xrotation Yrotation
                        JOINT LeftHandThumb3
                        {
                          OFFSET 2.55832 0 0
                          CHANNELS 3 Zrotation Xrotation Yrotation
                          End Site
                          {
                            OFFSET 2.194 0 0
                          }
                        }
                      }
                    }
                    JOINT LeftInHandIndex
                    {
                      OFFSET 3.22368 0.508421 1.97842
                      CHANNELS 3 Zrotation Xrotation Yrotation
                      JOINT LeftHandIndex1
                      {
                        OFFSET 5.21684 -0.091368 0.999158
                        CHANNELS 3 Zrotation Xrotation Yrotation
                        JOINT LeftHandIndex2
                        {
                          OFFSET 3.61937 0 0
                          CHANNELS 3 Zrotation Xrotation Yrotation
                          JOINT LeftHandIndex3
                          {
                            OFFSET 2.0521 0 0
                            CHANNELS 3 Zrotation Xrotation Yrotation
                            End Site
                            {
                              OFFSET 1.805 0 0
                            }
                          }
                        }
                      }
                    }
                    JOINT LeftInHandMiddle
                    {
                      OFFSET 3.38211 0.517263 0.756737
                      CHANNELS 3 Zrotation Xrotation Yrotation
                      JOINT LeftHandMiddle1
                      {
                        OFFSET 5.17411 -0.084 0.313895
                        CHANNELS 3 Zrotation Xrotation Yrotation
                        JOINT LeftHandMiddle2
                        {
                          OFFSET 3.94947 0 0
                          CHANNELS 3 Zrotation Xrotation Yrotation
                          JOINT LeftHandMiddle3
                          {
                            OFFSET 2.47579 0 0
                            CHANNELS 3 Zrotation Xrotation Yrotation
                            End Site
                            {
                              OFFSET 1.975 0 0
                            }
                          }
                        }
                      }
                    }
                    JOINT LeftInHandRing
                    {
                      OFFSET 3.36516 0.537895 -0.128947
                      CHANNELS 3 Zrotation Xrotation Yrotation
                      JOINT LeftHandRing1
                      {
                        OFFSET 4.63474 -0.022105 -0.478947
                        CHANNELS 3 Zrotation Xrotation Yrotation
                        JOINT LeftHandRing2
                        {
                          OFFSET 3.44238 0 0
                          CHANNELS 3 Zrotation Xrotation Yrotation
                          JOINT LeftHandRing3
                          {
                            OFFSET 2.3881 0 0
                            CHANNELS 3 Zrotation Xrotation Yrotation
                            End Site
                            {
                              OFFSET 1.857 0 0
                            }
                          }
                        }
                      }
                    }
                    JOINT LeftInHandPinky
                    {
                      OFFSET 3.16105 0.469368 -1.20179
                      CHANNELS 3 Zrotation Xrotation Yrotation
                      JOINT LeftHandPinky1
                      {
                        OFFSET 4.14105 -0.022105 -1.09053
                        CHANNELS 3 Zrotation Xrotation Yrotation
                        JOINT LeftHandPinky2
                        {
                          OFFSET 2.75653 0 0
                          CHANNELS 3 Zrotation Xrotation Yrotation
                          JOINT LeftHandPinky3
                          {
                            OFFSET 1.74189 0 0
                            CHANNELS 3 Zrotation Xrotation Yrotation
                            End Site
                            {
                              OFFSET 1.645 0 0
                            }
                          }
                        }
                      }
                    }
                  }
                }
              }
            }
          }
        }
      }
    }
  }
}
MOTION
Frames: 2
Frame Time: 0.00833333
9.000000000000000000e+02 0.000000000000000000e+00 0.000000000000000000e+00 0.000000000000000000e+00 0.000000000000000000e+00 0.000000000000000000e+00 1.645546781205531772e+01 -2.376087806250468404e+01 -9.725544412068629185e+01 -2.124881215333287443e+01 -3.215861050716155489e+01 2.171153837030074385e+01 -7.209974713255604684e+00 2.378600411846339924e+01 6.179560368509154245e+00 5.075126964917138217e+00 -1.030563813585649058e+01 7.244715695594794624e+01 -3.647732335716359131e+00 -3.447142906755605196e+01 1.328527931100090242e+01 5.981035912443218194e+00 8.341926883547280624e+00 -1.063881382939446496e+01 -1.362301669095260337e+01 5.555666795160864702e+00 1.116071248937372360e+02 1.615666068946713274e+00 2.184530240953074554e+01 1.942660825744809117e+01 8.909629536182253062e-01 7.082214584134908009e+00 5.634934141662076179e+00 1.426423704923611702e+00 8.033741895130875221e+00 8.724225495503979744e+00 -2.284573628320984984e+00 1.203693825966343223e+00 2.013031967745831263e+00 -4.212764909322304874e+01 1.275143532104694621e+01 1.959078664458834140e+01 -3.022910276686721431e+01 1.575529767892319910e+01 2.074118988244994810e+01 1.056319249934474946e+01 -8.052601086994723545e+00 1.860672602615309756e+01 1.703414513291203036e+01 2.152094033220624425e+01 7.289975978545635371e+01 -2.349211413054643742e+02 -6.453724876574224822e+01 -9.440340765070584439e+01 1.664936161379472779e+01 -2.232445181760362551e+00 -1.437493476714570129e+01 2.818400000000000105e+01 1.072940000000000005e+01 1.915919999999999845e+01 -3.272826762192921067e-15 2.836487675725838899e-15 -1.000000000000000000e+01 -4.237210807277523407e-15 7.454241486367864242e-15 -1.000000000000000000e+01 -3.013120393518775865e-16 -2.350551006107917001e-15 -1.916277986108753486e-15 1.998179999999999978e+01 8.718970000000000331e-01 2.396399999999999864e+00 2.400000000000000000e+01 -4.123356123485502945e-15 -1.181833670917652868e-14 2.000000000000000000e+01 5.389097598525644590e-15 2.034573840255480201e-14 -3.013120393518775865e-16 -2.350551006107917001e-15 -1.916277986108753486e-15 2.000000000000000000e+01 3.968323252449304216e-17 -2.871002379166986033e-15 2.400000000000000000e+01 -1.618835675354625007e-15 5.579057715004730007e-16 2.000000000000000000e+01 1.868528402771137316e-15 9.000129805289679791e-15 -3.013120393518775865e-16 -2.350551006107917001e-15 -1.916277986108753486e-15 1.997479999999999833e+01 -1.025649999999999951e+00 -2.819380000000000219e+00 2.400000000000000000e+01 1.971604559163104069e-15 1.720295448279017893e-15 2.000000000000000000e+01 -3.968892655091084250e-15 -1.085685567148192122e-14 -3.013120393518775865e-16 -2.350551006107917001e-15 -1.916277986108753486e-15 1.978150000000000119e+01 -3.009479999999999933e+00 -8.305149999999999366e+00 2.400000000000000000e+01 -8.437440472308468131e-16 2.461454929863804438e-15 2.000000000000000000e+01 -1.842809127507485719e-15 -3.490055968953374546e-15 -2.067720240222724470e+01 -1.149218891121432939e+00 -1.115020233354596968e+01 -4.511634293145355912e+01 4.832446436316327265e+01 -7.025407477968175840e+01 -4.887835376686910038e+00 -3.262030126696536136e+00 2.150447876425061722e+01 -7.565803621103825094e+01 -1.134226981408598931e+02 -8.243028452155901675e+01 -2.818400000000000105e+01 1.072940000000000005e+01 -1.915919999999999845e+01 -1.042363425633785224e-14 -1.453400417682459025e-15 1.000000000000000000e+01 -1.430718919480673837e-15 -5.239575021675828441e-15 1.000000000000000000e+01 2.856559154273266793e-15 -1.711753325590391834e-15 2.997690127799679562e-15 -1.998179999999999978e+01 8.718970000000000331e-01 -2.396399999999999864e+00 -2.400000000000000000e+01 9.472701357495365867e-15 -4.121452987511604263e-14 -2.000000000000000000e+01 5.097259516652806784e-16 7.049422014298172251e-15 2.856559154273266793e-15 -1.711753325590391834e-15 2.997690127799679562e-15 -2.000000000000000000e+01 -1.288515721356880360e-16 -2.522648477210156291e-15 -2.400000000000000000e+01 1.727218123087530303e-14 -5.583878877321945547e-14 -2.000000000000000000e+01 -2.086903171267043015e-17 5.893503879151847628e-15 2.856559154273266793e-15 -1.711753325590391834e-15 2.997690127799679562e-15 -1.997479999999999833e+01 -1.025649999999999951e+00 2.819380000000000219e+00 -2.400000000000000000e+01 1.303992879398404013e-14 -7.497796226674132489e-14 -2.000000000000000000e+01 -2.744966256309463344e-15 7.645515264118827875e-15 2.856559154273266793e-15 -1.711753325590391834e-15 2.997690127799679562e-15 -1.978150000000000119e+01 -3.009479999999999933e+00 8.305149999999999366e+00 -2.400000000000000000e+01 4.709329689452153853e-15 -3.631841888259780652e-15 -2.000000000000000000e+01 -5.822556966597783378e-16 8.337692786675234773e-15
9.000000000000000000e+02 0.000000000000000000e+00 0.000000000000000000e+00 0.000000000000000000e+00 0.000000000000000000e+00 0.000000000000000000e+00 1.649694015723842000e+01 -2.373856258735480296e+01 -9.792171734441016895e+01 -2.073246239987800621e+01 -3.217084454999322674e+01 2.206227313042291271e+01 -7.249313222736944340e+00 2.369158846487299996e+01 6.242684531283503091e+00 5.094037970491974043e+00 -1.018125604020658415e+01 7.257815140170870905e+01 -3.291072545374428060e+00 -3.433326831629247522e+01 1.345344986308914592e+01 5.995630062711717834e+00 8.485585264241610304e+00 -1.045283256875199385e+01 -1.387792121126863343e+01 5.635813404064784926e+00 1.118188484026879479e+02 1.482509914322164057e+00 2.174260118875791647e+01 1.929253535191607583e+01 8.542257629609224523e-01 7.047166023414073166e+00 5.589897088928253766e+00 1.366622871363007086e+00 8.005708916952416487e+00 8.652912761741371028e+00 -2.278282285628200565e+00 1.165588126988234219e+00 2.000028162916650754e+00 -4.180738211392424830e+01 1.205614874417083371e+01 2.024792818028478791e+01 -3.016333449189798799e+01 1.571784681338043832e+01 2.086505752945134873e+01 1.051002505347234894e+01 -7.989615770483859514e+00 1.848851416857256069e+01 1.744423576512501484e+01 2.130439109817129051e+01 7.261984913543318498e+01 -2.322887663814024961e+02 -6.464143330083786054e+01 -9.350468675366528259e+01 1.649481681930160093e+01 -2.361614686589928347e+00 -1.423313496350743002e+01 2.818400000000000105e+01 1.072940000000000005e+01 1.915919999999999845e+01 -3.270830034293965876e-15 2.817573906911640553e-15 -1.000000000000000000e+01 -4.198858430942871051e-15 7.400747767160057958e-15 -1.000000000000000000e+01 -3.363030949485652797e-16 -2.360535648450884149e-15 -1.881877483462383663e-15 1.998179999999999978e+01 8.718970000000000331e-01 2.396399999999999864e+00 2.400000000000000000e+01 -4.078859002657294093e-15 -1.171726096194151176e-14 2.000000000000000000e+01 5.290453420049837851e-15 2.004441695086818301e-14 -3.363030949485652797e-16 -2.360535648450884149e-15 -1.881877483462383663e-15 2.000000000000000000e+01 3.896224299550299633e-17 -2.868576716205438196e-15 2.400000000000000000e+01 -1.594870615440336741e-15 6.443590615344924832e-16 2.000000000000000000e+01 1.834409069535124202e-15 9.019832687947370501e-15 -3.363030949485652797e-16 -2.360535648450884149e-15 -1.881877483462383663e-15 1.997479999999999833e+01 -1.025649999999999951e+00 -2.819380000000000219e+00 2.400000000000000000e+01 1.967716768886246478e-15 1.727033932757201455e-15 2.000000000000000000e+01 -3.957897584827714674e-15 -1.067824830101548627e-14 -3.363030949485652797e-16 -2.360535648450884149e-15 -1.881877483462383663e-15 1.978150000000000119e+01 -3.009479999999999933e+00 -8.305149999999999366e+00 2.400000000000000000e+01 -8.263314403908414274e-16 2.439212793316155038e-15 2.000000000000000000e+01 -1.867129588843148208e-15 -3.589680011023505593e-15 -2.068124441691432480e+01 -1.345194760744607976e+00 -1.122305901777367332e+01 -4.477754838897931222e+01 4.826995751950819624e+01 -7.059204744174711266e+01 -5.254668914280223646e+00 -3.163524303327891474e+00 2.112462043267719736e+01 -7.449370278855383276e+01 -1.122393704653054556e+02 -8.207905750458036209e+01 -2.818400000000000105e+01 1.072940000000000005e+01 -1.915919999999999845e+01 -1.036123197964187784e-14 -1.455522077532271564e-15 1.000000000000000000e+01 -1.410572843894557226e-15 -5.257519494752003014e-15 1.000000000000000000e+01 2.846331267694782394e-15 -1.703474495165544067e-15 3.055136304324243265e-15 -1.998179999999999978e+01 8.718970000000000331e-01 -2.396399999999999864e+00 -2.400000000000000000e+01 9.410861735082803305e-15 -4.105881475575549547e-14 -2.000000000000000000e+01 5.316911266578960736e-16 7.006016306884426270e-15 2.846331267694782394e-15 -1.703474495165544067e-15 3.055136304324243265e-15 -2.000000000000000000e+01 -1.288998330075475496e-16 -2.625948861355634402e-15 -2.400000000000000000e+01 1.718668911306706140e-14 -5.564085253225157905e-14 -2.000000000000000000e+01 7.057933840073752960e-18 5.909606449143892692e-15 2.846331267694782394e-15 -1.703474495165544067e-15 3.055136304324243265e-15 -1.997479999999999833e+01 -1.025649999999999951e+00 2.819380000000000219e+00 -2.400000000000000000e+01 1.295049794473278805e-14 -7.460645964323581622e-14 -2.000000000000000000e+01 -2.725261608574538737e-15 7.582269881201787845e-15 2.846331267694782394e-15 -1.703474495165544067e-15 3.055136304324243265e-15 -1.978150000000000119e+01 -3.009479999999999933e+00 8.305149999999999366e+00 -2.400000000000000000e+01 4.664308856579371777e-15 -3.718888070931664767e-15 -2.000000000000000000e+01 -5.408868804986745449e-16 8.320750284277203941e-15
